<svg>
    <symbol fill="none" xmlns="http://www.w3.org/2000/svg" viewBox="0 0 66 66" id="delivery">
        <path d="M54.295 31.6634C48.4119 22.6552 49.0372 13.4214 46.2014 9.07983C43.3657 4.73828 34.9143 -2.74706 14.9457 10.2963C-5.023 23.3396 0.0558884 37.5185 3.17633 42.2925C17.7799 64.6489 64.7157 47.6172 54.295 31.6634Z" fill="#ECEFF2"></path>
        <path d="M48.1543 32.6921L49.2542 31.5922L51.4541 33.7921L50.3542 34.892L48.1543 32.6921Z" fill="#C2C8CD"></path>
        <path d="M41.8301 26.3689L42.93 25.2689L45.1299 27.4688L44.03 28.5688L41.8301 26.3689Z" fill="#C2C8CD"></path>
        <path d="M48.4316 27.4767L50.6315 25.2768L51.7315 26.3767L49.5316 28.5766L48.4316 27.4767Z" fill="#C2C8CD"></path>
        <path d="M29.5404 51.458C28.2539 51.458 27.207 50.4111 27.207 49.1247C27.207 47.8382 28.2539 46.7913 29.5404 46.7913C30.8268 46.7913 31.8737 47.8382 31.8737 49.1247C31.8737 50.4111 30.8268 51.458 29.5404 51.458ZM29.5404 48.3469C29.111 48.3469 28.7626 48.6953 28.7626 49.1247C28.7626 49.554 29.111 49.9024 29.5404 49.9024C29.9697 49.9024 30.3181 49.554 30.3181 49.1247C30.3181 48.6953 29.9697 48.3469 29.5404 48.3469Z" fill="#C2C8CD"></path>
        <path d="M30.3807 26.0556H12.834V31.5V42.3889H18.2784H23.6918H35.3895V31.5778V26.0556H30.3807Z" fill="#F3F3F1"></path>
        <path d="M39.2776 31.5777H35.3887V42.3888H36.9442H42.356H45.4998V37.7999C45.4998 34.3637 42.7138 31.5777 39.2776 31.5777Z" fill="#2A6CEA"></path>
        <path d="M20.9996 45.5C22.503 45.5 23.7218 44.2813 23.7218 42.7778C23.7218 41.2744 22.503 40.0556 20.9996 40.0556C19.4961 40.0556 18.2773 41.2744 18.2773 42.7778C18.2773 44.2813 19.4961 45.5 20.9996 45.5Z" fill="#F3F3F1"></path>
        <path d="M39.6675 45.5C41.171 45.5 42.3898 44.2813 42.3898 42.7778C42.3898 41.2744 41.171 40.0556 39.6675 40.0556C38.1641 40.0556 36.9453 41.2744 36.9453 42.7778C36.9453 44.2813 38.1641 45.5 39.6675 45.5Z" fill="#F3F3F1"></path>
        <path d="M19.4445 28.3889C24.3843 28.3889 28.3889 24.3843 28.3889 19.4445C28.3889 14.5046 24.3843 10.5 19.4445 10.5C14.5046 10.5 10.5 14.5046 10.5 19.4445C10.5 24.3843 14.5046 28.3889 19.4445 28.3889Z" fill="#2A6CEA"></path>
        <path d="M16.3322 28H12.4434V32.9259V42.7778H16.3322V32.9259V28Z" fill="#E1E6EA"></path>
        <path d="M35.3887 31.5777V42.3888H36.9442H38.8887V31.5777H35.3887Z" fill="#191C1F" fill-opacity="0.1"></path>
        <path d="M21.7773 42.7778C21.7773 41.944 22.16 41.2083 22.7496 40.7089C22.2751 40.3076 21.67 40.0556 20.9996 40.0556C19.4969 40.0556 18.2773 41.2752 18.2773 42.7778C18.2773 44.2805 19.4969 45.5 20.9996 45.5C21.67 45.5 22.2751 45.248 22.7496 44.8467C22.16 44.3474 21.7773 43.6116 21.7773 42.7778Z" fill="#D5DBE1"></path>
        <path d="M40.4453 42.7778C40.4453 41.944 40.828 41.2083 41.4175 40.7089C40.9431 40.3076 40.338 40.0556 39.6675 40.0556C38.1649 40.0556 36.9453 41.2752 36.9453 42.7778C36.9453 44.2805 38.1649 45.5 39.6675 45.5C40.338 45.5 40.9431 45.248 41.4175 44.8467C40.828 44.3474 40.4453 43.6116 40.4453 42.7778Z" fill="#D5DBE1"></path>
        <path d="M14 19.4445C14 15.1044 17.0924 11.4878 21.1945 10.6742C20.6282 10.5607 20.0433 10.5 19.4444 10.5C14.504 10.5 10.5 14.504 10.5 19.4445C10.5 24.3849 14.504 28.3889 19.4444 28.3889C20.0433 28.3889 20.6282 28.3282 21.1945 28.2147C17.0924 27.4011 14 23.7845 14 19.4445Z" fill="#191C1F" fill-opacity="0.1"></path>
        <path d="M19.4462 23.7224C19.1475 23.7224 18.8489 23.6088 18.6217 23.3801L13.9551 18.7135L15.6055 17.063L19.4477 20.9052L23.29 17.063L24.9404 18.7135L20.2737 23.3801C20.0435 23.6088 19.7449 23.7224 19.4462 23.7224Z" fill="white"></path>
        <path d="M19.4457 43.5557H12.8346C12.1906 43.5557 11.668 43.033 11.668 42.389V30.1623H14.0013V41.2223H19.4457V43.5557Z" fill="#191C1F"></path>
        <path d="M35.3898 43.5557H22.5254V41.2223H34.2232V27.2223H30.1632V24.889H35.3898C36.0338 24.889 36.5565 25.4117 36.5565 26.0557V42.389C36.5565 43.033 36.0338 43.5557 35.3898 43.5557Z" fill="#191C1F"></path>
        <path d="M45.5004 43.5555H41.19V41.2222H44.3338V37.8C44.3338 35.0124 42.0658 32.7444 39.2782 32.7444H36.556V41.2222H38.1115V43.5555H35.3893C34.7453 43.5555 34.2227 43.0329 34.2227 42.3889V31.5778C34.2227 30.9338 34.7453 30.4111 35.3893 30.4111H39.2782C43.3522 30.4111 46.6671 33.726 46.6671 37.8V42.3889C46.6671 43.0329 46.1444 43.5555 45.5004 43.5555Z" fill="#191C1F"></path>
        <path d="M21.0002 46.6668C18.8567 46.6668 17.1113 44.9215 17.1113 42.7779C17.1113 40.6343 18.8567 38.889 21.0002 38.889C23.1438 38.889 24.8891 40.6343 24.8891 42.7779C24.8891 44.9215 23.1438 46.6668 21.0002 46.6668ZM21.0002 41.2223C20.1431 41.2223 19.4447 41.9208 19.4447 42.7779C19.4447 43.635 20.1431 44.3335 21.0002 44.3335C21.8573 44.3335 22.5558 43.635 22.5558 42.7779C22.5558 41.9208 21.8573 41.2223 21.0002 41.2223Z" fill="#191C1F"></path>
        <path d="M39.6682 46.6668C37.5246 46.6668 35.7793 44.9215 35.7793 42.7779C35.7793 40.6343 37.5246 38.889 39.6682 38.889C41.8117 38.889 43.5571 40.6343 43.5571 42.7779C43.5571 44.9215 41.8117 46.6668 39.6682 46.6668ZM39.6682 41.2223C38.8111 41.2223 38.1126 41.9208 38.1126 42.7779C38.1126 43.635 38.8111 44.3335 39.6682 44.3335C40.5253 44.3335 41.2237 43.635 41.2237 42.7779C41.2237 41.9208 40.5253 41.2223 39.6682 41.2223Z" fill="#191C1F"></path>
    </symbol>
    <symbol fill="none" xmlns="http://www.w3.org/2000/svg" viewBox="0 0 66 66" id="money_bags">
        <path d="M20.8599 54.5175C30.6568 50.0702 39.6899 52.0924 44.411 49.9504C49.1321 47.8068 57.8152 40.5922 47.9577 18.8735C38.1001 -2.84517 23.3161 0.0186089 18.1221 2.37683C-6.19432 13.4119 3.50768 62.3917 20.8599 54.5175Z" fill="#ECEFF2"></path>
        <path d="M21.2295 15.3222H21.0895L24.7341 12.4071C25.5275 11.7756 25.0764 10.5 24.0699 10.5H14.1035C13.0955 10.5 12.6459 11.7756 13.4393 12.4071L17.0824 15.3222H16.9424C13.2339 17.4969 10.2441 23.6911 10.2441 28.182C10.2441 31.3973 11.851 34.6111 15.6015 34.6111H22.8348C26.5853 34.6111 28.1922 31.3958 28.1922 28.182C28.1953 23.6911 24.9379 17.4969 21.2295 15.3222Z" fill="#F3F3F1"></path>
        <path d="M13.7461 28.182C13.7461 23.6927 16.7359 17.4984 20.4443 15.3222H20.5843L16.9412 12.4071C16.1479 11.7756 16.599 10.5 17.6054 10.5H14.1054C13.0974 10.5 12.6479 11.7756 13.4412 12.4071L17.0843 15.3222H16.9443C13.2359 17.4969 10.2461 23.6911 10.2461 28.182C10.2461 31.3973 11.853 34.6111 15.6034 34.6111H19.1034C15.353 34.6111 13.7461 31.3958 13.7461 28.182Z" fill="#E1E6EA"></path>
        <path d="M38.6685 15.3222H38.5285L42.1716 12.4071C42.965 11.7756 42.5139 10.5 41.5074 10.5H31.541C30.533 10.5 30.0834 11.7756 30.8768 12.4071L34.5199 15.3222H34.3799C30.6714 17.4969 27.6816 23.6911 27.6816 28.182C27.6816 31.3973 29.2885 34.6111 33.039 34.6111H40.2723C44.0228 34.6111 45.6296 31.3958 45.6296 28.182C45.6343 23.6911 42.377 17.4969 38.6685 15.3222Z" fill="#F3F3F1"></path>
        <path d="M31.1852 28.182C31.1852 23.6927 34.1749 17.4984 37.8834 15.3222H38.0234L34.3787 12.4071C33.5854 11.7756 34.0365 10.5 35.0429 10.5H31.5429C30.5349 10.5 30.0854 11.7756 30.8787 12.4071L34.5218 15.3222H34.3818C30.6734 17.4969 27.6836 23.6911 27.6836 28.182C27.6836 31.3973 29.2905 34.6111 33.0409 34.6111H36.5409C32.7936 34.6111 31.1852 31.3958 31.1852 28.182Z" fill="#E1E6EA"></path>
        <path d="M30.2037 26.211H30.0637L33.7068 23.2959C34.5001 22.6643 34.049 21.3888 33.0426 21.3888H23.0761C22.0681 21.3888 21.6186 22.6643 22.4119 23.2959L26.055 26.211H25.915C22.2066 28.3857 19.2168 34.5799 19.2168 39.0708C19.2168 42.2861 20.8237 45.4999 24.5741 45.4999H31.8075C35.5579 45.4999 37.1648 42.2846 37.1648 39.0708C37.1679 34.5799 33.9106 28.3857 30.2037 26.211Z" fill="#2A6CEA"></path>
        <path d="M27.2695 40.7555C26.9615 40.7555 26.6629 40.6327 26.4451 40.4133L23.334 37.3022L24.9844 35.6518L27.1451 37.8124L31.0029 32.6667L32.868 34.0667L28.2013 40.2889C27.9991 40.5595 27.6895 40.7291 27.3504 40.7524C27.324 40.7555 27.2975 40.7555 27.2695 40.7555Z" fill="white"></path>
        <path d="M22.7207 39.0708C22.7207 34.5815 25.7105 28.3872 29.4189 26.211H29.5589L25.9158 23.2959C25.1225 22.6643 25.5736 21.3888 26.58 21.3888H23.08C22.072 21.3888 21.6225 22.6643 22.4158 23.2959L26.0589 26.211H25.9189C22.2105 28.3857 19.2207 34.5799 19.2207 39.0708C19.2207 42.2861 20.8276 45.4999 24.578 45.4999H28.078C24.3276 45.4999 22.7207 42.2846 22.7207 39.0708Z" fill="#191C1F" fill-opacity="0.1"></path>
        <path d="M46.6152 42.6373L48.8151 40.4374L49.9151 41.5373L47.7152 43.7372L46.6152 42.6373Z" fill="#C2C8CD"></path>
        <path d="M40.291 48.9601L42.4909 46.7602L43.5908 47.8601L41.391 50.06L40.291 48.9601Z" fill="#C2C8CD"></path>
        <path d="M40.291 41.2615L41.391 40.1616L43.5908 42.3614L42.4909 43.4614L40.291 41.2615Z" fill="#C2C8CD"></path>
        <path d="M46.6152 47.5854L47.7152 46.4855L49.9151 48.6853L48.8151 49.7853L46.6152 47.5854Z" fill="#C2C8CD"></path>
        <path d="M22.0742 16.2339L20.6167 14.4107L24.0482 11.6668H14.6356L18.0671 14.4107L16.6096 16.2339L12.9664 13.3188C12.212 12.7183 11.932 11.7399 12.2509 10.8299C12.5682 9.92142 13.3973 9.33342 14.3587 9.33342H24.3251C25.288 9.33342 26.114 9.92142 26.4329 10.8314C26.7518 11.7414 26.4702 12.7183 25.7173 13.3203L22.0742 16.2339Z" fill="#191C1F"></path>
        <path d="M13.7168 14.1557H24.9681V16.489H13.7168V14.1557Z" fill="#191C1F"></path>
        <path d="M15.8595 35.7779C11.3515 35.7779 9.33398 31.9622 9.33398 28.1806C9.33398 23.6415 12.3206 16.8297 16.6078 14.3159L17.7884 16.3273C14.584 18.2079 11.6673 23.8577 11.6673 28.1806C11.6673 29.0595 11.8695 33.4446 15.8595 33.4446V35.7779Z" fill="#191C1F"></path>
        <path d="M39.3923 16.2339L37.9348 14.4107L41.3663 11.6668H31.9537L35.3852 14.4107L33.9277 16.2339L30.2846 13.3203C29.5317 12.7183 29.2501 11.7399 29.569 10.8299C29.8879 9.92142 30.7154 9.33342 31.6768 9.33342H41.6432C42.6061 9.33342 43.4321 9.92142 43.751 10.8314C44.0699 11.7414 43.7884 12.7183 43.0355 13.3203L39.3923 16.2339Z" fill="#191C1F"></path>
        <path d="M31.0332 14.1557H42.2845V16.489H31.0332V14.1557Z" fill="#191C1F"></path>
        <path d="M40.1433 35.7779V33.4446C44.1318 33.4446 44.334 29.0611 44.334 28.1806C44.334 23.8577 41.4173 18.2079 38.2129 16.3273L39.3936 14.3159C43.6791 16.8297 46.6673 23.6415 46.6673 28.1806C46.6673 31.9622 44.6498 35.7779 40.1433 35.7779Z" fill="#191C1F"></path>
    </symbol>
    <symbol fill="none" xmlns="http://www.w3.org/2000/svg" viewBox="0 0 66 66" id="secure">
        <path d="M6.48176 42.9691C6.48176 32.2094 0.908203 24.8205 0.908203 19.6358C0.908203 14.4511 3.88865 3.56226 27.74 3.56226C51.5913 3.56226 55.0913 18.2109 55.0913 23.9136C55.0929 50.6178 6.48176 62.0247 6.48176 42.9691Z" fill="#ECEFF2"></path>
        <path d="M41.416 12.8334H42.9716V15.9445H41.416V12.8334Z" fill="#C2C8CD"></path>
        <path d="M44.916 17.5H48.0271V19.0555H44.916V17.5Z" fill="#C2C8CD"></path>
        <path d="M33.0556 37.8311V13.6111C33.0556 11.8922 31.6633 10.5 29.9444 10.5H13.6111C11.8922 10.5 10.5 11.8922 10.5 13.6111V37.8311C10.5 39.55 11.8922 40.9422 13.6111 40.9422H29.9444C31.6633 40.9422 33.0556 39.55 33.0556 37.8311Z" fill="#F3F3F1"></path>
        <path d="M37.3327 45.5001C37.3327 45.5001 45.4994 42.0281 45.4994 35.0841C45.4994 32.3058 45.4994 28.8338 45.4994 28.8338L37.3327 26.0556L29.166 28.8338V35.0841C29.166 42.0281 37.3327 45.5001 37.3327 45.5001Z" fill="#2A6CEA"></path>
        <path d="M14 37.8311V13.6111C14 11.8922 15.3922 10.5 17.1111 10.5H13.6111C11.8922 10.5 10.5 11.8922 10.5 13.6111V37.8311C10.5 39.55 11.8922 40.9422 13.6111 40.9422H17.1111C15.3922 40.9422 14 39.55 14 37.8311Z" fill="#E1E6EA"></path>
        <path d="M32.666 35.0841C32.666 30.9167 32.666 28.8338 32.666 28.8338L39.0827 26.6514L37.3327 26.0556L29.166 28.8338V35.0841C29.166 42.0281 37.3327 45.5001 37.3327 45.5001C37.3327 45.5001 38.0654 45.1843 39.0827 44.5683C36.684 43.1154 32.666 39.9592 32.666 35.0841Z" fill="#191C1F" fill-opacity="0.1"></path>
        <path d="M23.7229 42.0001H13.6118C11.252 42.0001 9.33398 40.0821 9.33398 37.7223V13.6112C9.33398 11.2514 11.252 9.3334 13.6118 9.3334H29.9451C32.3049 9.3334 34.2229 11.2514 34.2229 13.6112V22.1667H31.8896V13.6112C31.8896 12.5394 31.0169 11.6667 29.9451 11.6667H13.6118C12.54 11.6667 11.6673 12.5394 11.6673 13.6112V37.7223C11.6673 38.7941 12.54 39.6667 13.6118 39.6667H23.7229V42.0001Z" fill="#191C1F"></path>
        <path d="M15.9907 29.2133L14.3418 27.5644L18.2307 23.6755C18.6025 23.3022 19.1765 23.226 19.6338 23.4873L21.614 24.6197L26.0411 20.5333L27.6247 22.2491L22.5691 26.9157C22.1942 27.2611 21.6389 27.3233 21.1987 27.0713L19.2496 25.9575L15.9907 29.2133Z" fill="#191C1F"></path>
        <path d="M27.9996 26.4444H25.6662V22.5555H21.7773V20.2222H26.8329C27.4769 20.2222 27.9996 20.7449 27.9996 21.3889V26.4444Z" fill="#191C1F"></path>
        <path d="M36.9434 39.6666C36.6354 39.6666 36.3367 39.5437 36.1189 39.3243L33.0078 36.2132L34.6583 34.5628L36.8189 36.7235L40.6767 31.5777L42.5418 32.9777L37.8751 39.1999C37.6729 39.4706 37.3634 39.6401 37.0243 39.6635C36.9978 39.6666 36.9714 39.6666 36.9434 39.6666Z" fill="white"></path>
    </symbol>
    <symbol fill="none" xmlns="http://www.w3.org/2000/svg" viewBox="0 0 66 66" id="wait">
        <path d="M54.295 31.6634C48.4119 22.6552 49.0372 13.4214 46.2014 9.07983C43.3657 4.73828 34.9143 -2.74706 14.9457 10.2963C-5.023 23.3396 0.0558884 37.5185 3.17633 42.2925C17.7799 64.6489 64.7157 47.6172 54.295 31.6634Z" fill="#ECEFF2"></path>
        <path d="M29.1667 17.8049C29.1667 18.1627 28.9318 18.4707 28.6067 18.5764L21.0513 21.0513L18.5764 28.6067C18.4707 28.9318 18.1627 29.1667 17.8049 29.1667C17.4564 29.1667 17.164 28.9473 17.0504 28.6471L10.5576 11.6044C10.5156 11.5142 10.5 11.4178 10.5 11.312C10.5 10.8656 10.8656 10.5 11.312 10.5C11.4178 10.5 11.5142 10.5156 11.6044 10.5576L28.6487 17.0504C28.9473 17.1624 29.1667 17.4549 29.1667 17.8049Z" fill="#F3F3F1"></path>
        <path d="M14.0576 11.6044C14.0404 11.5671 14.042 11.522 14.0327 11.4831L11.6044 10.5576C11.5142 10.5156 11.4178 10.5 11.312 10.5C10.8656 10.5 10.5 10.8656 10.5 11.312C10.5 11.4178 10.5156 11.5142 10.556 11.6044L17.0489 28.6487C17.1624 28.9489 17.4549 29.1682 17.8033 29.1682C18.1611 29.1682 18.4691 28.9333 18.5749 28.6082L19.4802 25.844L14.0576 11.6044Z" fill="#E1E6EA"></path>
        <path d="M35 45.5C40.799 45.5 45.5 40.799 45.5 35C45.5 29.201 40.799 24.5 35 24.5C29.201 24.5 24.5 29.201 24.5 35C24.5 40.799 29.201 45.5 35 45.5Z" fill="#2A6CEA"></path>
        <path d="M28 35C28 29.7982 31.7862 25.4924 36.75 24.6571C36.1791 24.5607 35.5973 24.5 35 24.5C29.2009 24.5 24.5 29.2009 24.5 35C24.5 40.7991 29.2009 45.5 35 45.5C35.5973 45.5 36.1791 45.4378 36.75 45.3429C31.7862 44.5076 28 40.2018 28 35Z" fill="#191C1F" fill-opacity="0.1"></path>
        <path d="M46.8672 19.7271L47.9671 18.6271L50.167 20.827L49.0671 21.9269L46.8672 19.7271Z" fill="#C2C8CD"></path>
        <path d="M40.5449 13.4011L41.6449 12.3011L43.8447 14.501L42.7448 15.6009L40.5449 13.4011Z" fill="#C2C8CD"></path>
        <path d="M47.1426 14.5024L49.3425 12.3025L50.4424 13.4024L48.2425 15.6023L47.1426 14.5024Z" fill="#C2C8CD"></path>
        <path d="M40.8203 20.825L43.0202 18.6251L44.1201 19.725L41.9203 21.9249L40.8203 20.825Z" fill="#C2C8CD"></path>
        <path d="M38.5376 40.1799L34.2598 36.6799C33.9876 36.459 33.832 36.1277 33.832 35.7777V29.1666H36.1654V35.2255L40.0154 38.3755L38.5376 40.1799Z" fill="white"></path>
        <path d="M17.804 30.3334C16.9889 30.3334 16.2469 29.8216 15.9575 29.0609L9.46621 12.0198C9.38532 11.8409 9.33398 11.5843 9.33398 11.3105C9.33398 10.22 10.2207 9.33337 11.3111 9.33337C11.5849 9.33337 11.8415 9.38471 12.0749 9.48893L29.0615 15.9585C29.8207 16.2478 30.3324 16.9883 30.3324 17.8049C30.3324 18.6636 29.7833 19.418 28.9682 19.6856L21.9744 21.9769L19.6831 28.9707C19.4171 29.7843 18.6627 30.3334 17.804 30.3334ZM11.9271 11.928L17.7807 27.2876L19.9429 20.6874C20.058 20.3343 20.3364 20.0574 20.688 19.9423L27.2882 17.78L11.9271 11.928ZM11.1898 11.6465C11.1944 11.648 11.2007 11.6512 11.2084 11.6527L11.1898 11.6465ZM11.6253 11.1332L11.6455 11.186C11.6393 11.1705 11.6331 11.1534 11.6253 11.1332Z" fill="#191C1F"></path>
    </symbol>
</svg>